<?xml version="1.0" encoding="utf-8"?>
<svg xmlns="http://www.w3.org/2000/svg" viewBox="0 0 1140 360">
  <!-- Building icon (from geometric logo) -->
  <g transform="translate(10, 10) scale(1.141) translate(-53, -359)">
    <path fill="#252424" d="M165.15 359.393L165.586 359.478C166.135 360.579 166.135 448.838 165.721 456.128C160.853 461.107 150.594 468.164 144.768 472.702C131.377 483.133 116.969 493.415 104.07 504.436C104.003 541.341 104.713 579.988 104.027 616.667C100.724 620.003 94.0495 624.888 90.2758 627.949C78.8359 637.229 66.6549 645.853 55.2081 655.095L54.6923 655.281L54.1365 654.778C53.6975 650.595 53.9467 640.153 53.9087 635.398L53.5509 597.997L53.6414 508.737C53.8494 486.582 54.5738 460.166 53.7656 438.175C90.498 412.359 128.232 384.491 165.15 359.393Z"/>
    <path fill="#FA611A" d="M202.576 440.39L203.227 440.407C204.331 441.645 203.599 459.778 203.596 463.188L203.701 507.925L203.985 655.447L114.376 655.508L113.079 655.332C111.652 652.697 112.345 597.179 112.303 589.383C112.163 563.097 111.68 535.221 112.222 508.939C119.205 502.318 133.365 492.893 141.369 486.685C161.575 471.016 181.905 455.44 202.576 440.39Z"/>
    <path fill="#252424" d="M212.015 481.133C214.597 482.283 228.747 494.813 232.091 497.61L261.146 521.568C262.162 565.976 260.13 612.088 261.424 656.789C255.34 652.782 245.217 644.065 239.171 639.027C232.915 633.814 217.008 622.114 212.278 616.504C211.647 603.866 212.22 586.752 212.223 573.71C212.315 542.851 212.246 511.991 212.015 481.133Z"/>
  </g>
  <!-- Wordmark (from wordmark logo) -->
  <g transform="translate(278, 10) scale(1.018) translate(-92, -346)">
    <path fill="#252527" d="M549.08 347.313C621.139 341.225 658.071 412.456 615.702 469.884C601.379 489.297 576.556 498.45 553.128 501.38C534.705 503.218 510.752 498.031 495.919 486.601C481.114 475.419 472.92 459.779 470.556 441.424C463.713 388.279 498.698 354.041 549.08 347.313ZM553.086 460.462C556.462 459.886 559.219 459.341 562.409 458.043C585.597 448.612 593.585 408.521 571.931 393.47C565.789 389.291 558.364 387.429 550.977 388.214C540.885 389.768 533.611 393.004 527.328 401.371C510.119 424.289 517.685 465.378 553.086 460.462Z"/>
    <path fill="#252527" d="M777.83 528.093C787.137 527.439 805.785 527.962 815.507 527.974C830.836 527.991 852.697 527.259 867.558 529.097C873.098 529.733 878.52 531.15 883.663 533.306C896.18 538.527 907.381 548.371 907.954 562.823C908.858 585.574 897.47 593.135 878.376 600.343C891.612 607.164 903.523 615.849 904.654 632.201C905.485 644.226 900.183 653.131 892.396 661.844C867.215 684.195 831.311 679.172 799.994 679.171C784.726 679.17 769.833 679.452 754.609 679.539C757.434 657.357 761.621 634.564 764.871 612.36C768.988 584.242 772.979 556.087 777.83 528.093ZM807.799 644.12C820.689 644.568 837.004 645.595 849.115 640.866C852.329 638.687 855.19 636.167 855.882 632.187C857.281 624.133 851.215 618.914 843.751 618.209C832.88 617.183 821.976 617.451 811.134 617.745C810.505 625.973 808.943 635.825 807.799 644.12ZM815.837 586.704C826.768 586.784 842.892 587.857 852.687 583.794C856.215 581.547 858.142 578.838 858.956 574.725C861.987 559.405 828.04 563.142 819.551 563.008C818.069 570.604 816.908 578.996 815.837 586.704Z"/>
    <path fill="#252527" d="M106.109 527.732C124.31 528.605 143.293 527.651 161.573 527.926C182.661 528.242 203.474 526.102 223.714 533.946C242.652 541.285 249.457 561.927 241.968 580C237.413 590.9 226.293 596.479 215.809 600.683C221.192 603.851 226.151 606.018 230.788 610.407C246.843 625.602 244.034 645.261 230.424 660.521C207.854 682.58 171.037 679.427 141.776 679.435L92.6429 679.508C93.0641 675.251 93.6476 671.002 94.2166 666.761C99.8911 624.472 107.859 582.192 113.296 539.903C110.915 535.691 108.245 532.203 106.109 527.732ZM144.243 644.175C156.005 644.509 174.499 645.199 185.472 641.231C198.868 632.174 191.433 617.673 176.783 618.07C170.946 618.228 163.847 616.847 157.724 617.609C155.49 617.658 150.246 617.941 148.358 617.783C146.42 623.682 145.541 637.319 144.243 644.175ZM156.249 563.026C155.256 570.48 154.317 579.301 153.107 586.589C160.352 586.615 169.987 586.854 177.124 586.366C182.626 585.707 191.262 584.675 194.193 579.775C203.598 564.055 180.191 562.929 172.632 562.73C167.229 562.852 161.639 563.055 156.249 563.026Z"/>
    <path fill="#252527" d="M488.907 527.747C495.971 527.724 507.362 527.52 514.216 528.318C512.654 544.848 509.051 565.65 506.79 582.641C518.442 583.291 530.213 582.624 541.875 582.581C544.89 582.57 547.549 582.475 550.552 582.979C551.788 564.949 555.643 546.037 557.906 527.914L606.221 527.891C605.537 533.952 604.062 541.707 603.133 547.98L596.584 592.958C594.058 610.578 591.391 628.178 588.584 645.755C586.921 656.667 585.386 668.987 583.186 679.688C573.745 679.247 560.936 679.566 551.25 679.53L535.973 679.479C537.318 661.757 542.196 640.074 544.226 621.628C533.782 620.328 512.063 621.212 500.88 621.618C497.993 639.572 495.916 662.255 492.239 679.594C476.973 679.286 459.894 679.568 444.562 679.711L458.908 585.764C461.056 571.346 464.341 553.431 465.755 539.284C463.02 536.181 460.187 531.667 458.279 527.989C468.489 527.99 478.698 527.91 488.907 527.747Z"/>
    <path fill="#252527" d="M612.145 527.733C630.377 528.473 649.839 527.529 668.651 528.184L660.684 581.53C658.964 593.153 653.237 620.74 659.372 630.294C662.203 634.647 666.715 637.627 671.828 638.522C677.625 639.578 685.447 637.64 690.111 634.247C702.85 624.98 703.511 603.893 705.581 589.505C707.323 578.021 709.006 566.529 710.63 555.028C711.807 546.453 712.868 536.469 714.479 528.062C727.749 527.292 747.821 528.033 761.859 528.015C761.76 535.401 758.556 554.678 757.358 562.726C755.304 574.254 753.541 587.241 751.86 598.902C748.064 625.235 743.783 648.162 721.036 664.973C703.157 678.162 680.727 683.607 658.792 680.085C634.075 676.343 612.242 658.51 608.577 633.267C606.157 616.593 611.096 593.905 613.668 576.831C615.422 564.459 617.251 552.098 619.156 539.749C617.141 536.626 613.312 531.052 612.145 527.733Z"/>
    <path fill="#252527" d="M877.67 349.008C891.936 349.543 910.873 348.917 925.666 348.978C925.435 352.476 924.83 355.95 924.34 359.42C919.985 390.291 915.451 421.137 910.827 451.969C909.04 463.88 906.303 475.669 905.278 487.688C907.748 491.346 910.139 494.791 912.301 498.651L912.032 499.075L908.625 499.15C891.113 499.035 873.599 499.065 856.088 499.238C859.1 480.359 861.85 461.438 864.336 442.482C854.375 441.416 832.42 442.244 821.663 442.388C819.746 450.506 818.223 461.921 816.939 470.277C815.617 478.878 813.55 490.603 812.888 499.101C796.286 499.248 782.116 499.601 765.345 499.119C765.833 491.659 768.434 477.442 769.63 469.644L777.063 420.253C778.849 408.946 780.494 397.617 781.997 386.268C783.119 377.898 784.054 369.211 785.754 360.968C782.958 357.488 780.258 353.048 778.235 349.06L835.144 349.011C833.964 353.929 833.002 361.212 832.189 366.331C830.213 378.553 828.471 390.811 826.964 403.1C840.554 403.027 856.954 402.689 870.34 403.263C871.858 385.591 875.95 366.755 877.67 349.008Z"/>
    <path fill="#252527" d="M342.083 348.936L387.826 348.856C400.396 348.842 416.592 348.156 428.569 350.937C435.416 352.518 441.857 355.51 447.482 359.722C458.764 368.128 465.616 379.319 467.523 393.213C473.009 433.17 441.623 456.05 405.683 461.195C396.243 462.063 380.753 461.719 370.689 461.836C368.119 473.618 366.382 486.999 363.828 499.187C350.172 498.655 331.214 498.933 317.496 499.194C321.714 472.145 326.642 445.178 330.675 418.203C332.834 402.877 335.182 387.578 337.72 372.311C338.89 365.297 340.36 355.586 342.083 348.936ZM383.873 386.952C382.254 399.03 380.368 411.07 378.216 423.064C388.664 423.183 399.915 424.255 409.84 421.328C425.371 413.749 426.657 392.26 408.806 387.741C402.15 386.056 396.391 387.563 390.413 386.771L383.873 386.952Z"/>
    <path fill="#252527" d="M197.788 349.05C209.432 348.286 233.319 348.808 245.235 349.047C246.861 356.451 249.558 365.435 251.426 373.002C255.6 390.186 259.676 407.394 263.654 424.625C266.726 437.952 269.88 451.26 273.115 464.548C277.511 482.677 277.019 484.3 287.679 499.38C275.756 498.848 263.45 499.362 251.486 499.089C245.848 498.961 239.821 499.031 234.202 499.373C232.546 492.159 231.086 481.73 229.829 474.237C219.345 474.141 208.86 474.118 198.375 474.169C189.967 474.392 181.353 474.234 172.925 474.172C167.939 482.605 163.861 490.969 158.42 499.366C141.371 499.313 125.4 499.751 108.136 499.327C111.172 492.198 120.79 477.266 125.266 469.879L154.175 421.727L182.01 374.796C186.616 367.02 192.663 356.131 197.788 349.05ZM191.295 438.056L199.532 438.055L221.6 438.157C220.697 433.191 215.024 400.662 213.335 398.846C206.567 409.743 197.458 426.483 191.295 438.056Z"/>
    <path fill="#252527" d="M449.674 527.725L450.492 527.845C451.435 529.603 451.047 554.515 451.046 558.316C443.309 567.484 429.767 580.445 421.028 589.515L371.852 641.105C394.841 641.714 420.163 640.947 443.515 641.185L419.713 679.463C401.984 680.651 380.917 679.139 362.992 679.242C345.708 679.341 328.664 679.755 311.375 679.466L306.177 679.47C305.955 671.116 306.183 654.764 307.279 646.692C332.243 619.33 361.926 592.047 385.84 564.581C377.29 563.855 367.619 564.166 358.93 564.165L315.962 564.136C318.65 558.898 323.959 551.036 327.198 545.95C330.677 540.489 335.132 532.988 338.904 528.055C375.153 527.142 413.722 529.216 449.674 527.725Z"/>
    <path fill="#252527" d="M267.482 528.123C282.015 527.659 300.94 527.749 315.476 528.108C311.857 547.143 308.611 566.247 305.74 585.409C304.571 592.88 292.487 677.746 291.358 679.539C277.433 680.245 257.785 679.66 243.497 679.653C245.753 661.803 249.73 640.826 252.626 622.84C257.766 591.298 262.718 559.725 267.482 528.123Z"/>
    <path fill="#F76811" d="M293.744 348.616C315.454 348.602 333.055 368.778 322.831 389.969C318.402 399.15 310.312 407.423 303.482 414.976C298.402 420.577 293.367 426.218 288.377 431.899L283.349 437.889C287.475 425.543 291.24 411.514 294.936 398.901C290.718 397.996 287.271 397.066 283.573 394.687C277.27 390.719 272.885 384.323 271.456 377.014C268.257 360.753 278.61 351.007 293.744 348.616Z"/>
    <path fill="#252527" d="M706.362 346.714C726.646 345.708 749.407 350.365 767.501 359.47C764.6 367.215 754.261 387.478 749.941 395.091C736.053 388.665 711.292 379.914 695.452 389.195C688.746 393.123 697.738 402.049 702.957 402.407C703.968 402.476 708.794 404.713 710.124 404.896C732.813 412.491 763.144 420.168 761.893 449.976C760.582 481.21 733.15 498.189 704.754 501.501C699.339 502.132 692.636 501.824 687.124 501.686C664.315 501.172 645.4 496.924 625.819 485.016C630.869 475.453 640.656 460.314 646.861 451.349C661.963 457.589 677.087 463.858 693.778 463.581C698.795 463.608 711.892 463.169 711.003 455.684C710.268 449.505 698.327 447.045 693.516 445.439C680.552 441.112 666.701 437.446 655.804 428.857C648.443 423.054 644.453 414.547 643.624 405.332C642.379 392.328 646.411 378.492 654.766 368.41C668.004 352.435 686.82 348.614 706.362 346.714Z"/>
  </g>
</svg>
